<?xml version="1.0"?>
<svg xmlns:rdf="http://www.w3.org/1999/02/22-rdf-syntax-ns#" xmlns="http://www.w3.org/2000/svg" xmlns:cc="http://creativecommons.org/ns#" xmlns:xlink="http://www.w3.org/1999/xlink" xmlns:dc="http://purl.org/dc/elements/1.1/" xmlns:svg="http://www.w3.org/2000/svg" id="svg2" viewBox="0 0 201.39 242.08" version="1.1">
  <title id="title4058">Book Icon</title>
  <defs id="defs4">
    <filter id="filter3876" height="1.5258" width="1.3666" y="-.26292" x="-.18329" color-interpolation-filters="sRGB">
      <feGaussianBlur id="feGaussianBlur3878" stdDeviation="6.3663093"/>
    </filter>
    <filter id="filter4012" height="1.1981" width="2.9722" y="-.099039" x="-.98609" color-interpolation-filters="sRGB">
      <feGaussianBlur id="feGaussianBlur4014" stdDeviation="5.6615888"/>
    </filter>
    <linearGradient id="linearGradient4050" y2="461.02" gradientUnits="userSpaceOnUse" x2="331.05" y1="494.57" x1="429.18">
      <stop id="stop4018" stop-color="#000080" offset="0"/>
      <stop id="stop4024" stop-color="#00f" stop-opacity=".49664" offset=".95644"/>
      <stop id="stop4020" stop-color="#00f" stop-opacity=".6" offset="1"/>
    </linearGradient>
    <linearGradient id="linearGradient4052" y2="502.36" gradientUnits="userSpaceOnUse" x2="540.5" y1="502.36" x1="459.5">
      <stop id="stop4028" stop-color="#007f00" offset="0"/>
      <stop id="stop4034" stop-color="#7f7f7f" offset=".093197"/>
      <stop id="stop4030" stop-color="#008000" offset="1"/>
    </linearGradient>
  </defs>
  <g id="layer1" transform="translate(-343.59 -373.87)">
    <g id="g4036">
      <g id="g4079">
        <path id="path2998" d="m350 402.36 80 50c16.6 50 8.3612 100 0 150l-80-50z" stroke="#000" stroke-width=".1" fill="url(#linearGradient4050)"/>
        <path id="path3000" d="m430 452.36h30v150h-30z" stroke="#000" stroke-width=".1" fill="#f00"/>
        <path id="path3002" d="m460 452.36 80-50v160l-80 40z" stroke="#000" stroke-width=".1" fill="url(#linearGradient4052)"/>
        <path id="path3010" fill="#ccc" d="m352.34 402.36 18.355-15.809s47.391 21.803 67.048 41.205c7.7662 7.6654 5.392 24.299 5.392 24.299l-12.581 0.31368z"/>
        <path id="path3012" d="m538.99 401.16-17.157-15.809s-53.181 24.122-73.039 42.403c-7.7237 7.1101-5.392 26.096-5.392 26.096l17.374-2.6819z" fill="#ccc"/>
        <path id="path3014" d="m350.48 401.73 79.682 50.325" stroke="#ffd42a" stroke-width="4" fill="#fd5"/>
        <path id="path3016" d="m460.12 452.05h-30.555" stroke="#ffd42a" stroke-width="4" fill="none"/>
        <path id="path3018" d="m539.13 401.8-81.939 51.385" stroke="#ffd42a" stroke-width="4.1389" fill="none"/>
        <path id="path3020" d="m459.31 453.85-0.59 147.38" stroke="#e9c6af" stroke-width="2" fill="#e9c6af"/>
        <path id="path3022" filter="url(#filter3876)" fill="#fff" d="m446.34 441.27 7.7884 6.5902s78.483-46.731 75.488-48.528c-2.9956-1.7973-8.3875-9.5858-8.3875-9.5858z"/>
        <path id="path3880" filter="url(#filter3876)" d="m446.34 441.27 7.7884 6.5902s78.483-46.731 75.488-48.528c-2.9956-1.7973-8.3875-9.5858-8.3875-9.5858z" fill="#fff" transform="matrix(-1 0 0 1 888.56 -.59911)"/>
        <path id="path3882" opacity=".64435" d="m430.55 461.5 15.789-1.6575-2.3964 136.6-14.137 2.1867z" fill-opacity=".83929" transform="matrix(1.0878 0 0 1.062 -36.773 -34.204)" filter="url(#filter4012)" fill="#fff"/>
      </g>
    </g>
  </g>
  <metadata>
    <rdf:RDF>
      <cc:Work>
        <dc:format>image/svg+xml</dc:format>
        <dc:type rdf:resource="http://purl.org/dc/dcmitype/StillImage"/>
        <cc:license rdf:resource="http://creativecommons.org/licenses/publicdomain/"/>
        <dc:publisher>
          <cc:Agent rdf:about="http://openclipart.org/">
            <dc:title>Openclipart</dc:title>
          </cc:Agent>
        </dc:publisher>
        <dc:title>Book</dc:title>
        <dc:date>2013-07-01T19:06:35</dc:date>
        <dc:description>Book icon</dc:description>
        <dc:source>http://openclipart.org/detail/179933/book-by-algotruneman-179933</dc:source>
        <dc:creator>
          <cc:Agent>
            <dc:title>algotruneman</dc:title>
          </cc:Agent>
        </dc:creator>
        <dc:subject>
          <rdf:Bag>
            <rdf:li>book</rdf:li>
            <rdf:li>icon</rdf:li>
            <rdf:li>icons</rdf:li>
            <rdf:li>reading</rdf:li>
          </rdf:Bag>
        </dc:subject>
      </cc:Work>
      <cc:License rdf:about="http://creativecommons.org/licenses/publicdomain/">
        <cc:permits rdf:resource="http://creativecommons.org/ns#Reproduction"/>
        <cc:permits rdf:resource="http://creativecommons.org/ns#Distribution"/>
        <cc:permits rdf:resource="http://creativecommons.org/ns#DerivativeWorks"/>
      </cc:License>
    </rdf:RDF>
  </metadata>
</svg>
